#!OML:ASF F:\VICON\USERDATA\INSTALL\rory3\rory3.ASF
:FULLY-SPECIFIED
:DEGREES
640
root 1.56778 18.2287 4.63247 -9.65598 -23.3562 -2.00478
lowerback 0.756433 -0.688034 -3.42614
upperback 1.73607 -0.90204 -1.83836
thorax 1.38017 -0.486078 0.0298311
lowerneck -5.00707 -2.73529 -5.03811
upperneck 10.2261 -4.84931 13.9849
head 4.32674 -1.91909 4.89749
rclavicle 6.36111e-015 -1.59028e-015
rhumerus 31.6648 12.9195 -69.3551
rradius 114.801
rwrist -9.26137
rhand -38.1892 -4.08554
rfingers 7.12502
rthumb -11.2217 -33.7654
lclavicle 6.36111e-015 -1.59028e-015
lhumerus -2.63481 -23.8141 84.5621
lradius 19.0835
lwrist -12.9532
lhand -11.3097 30.8952
lfingers 7.12502
lthumb 14.7221 60.3525
rfemur -0.563697 15.5714 20.7657
rtibia 33.9555
rfoot -19.9609 -11.5115
rtoes -10.5006
lfemur -5.11025 -3.72679 -6.90655
ltibia 42.2638
lfoot -11.4662 17.4418
ltoes -22.4667
641
root 1.52735 18.2355 4.61479 -9.91591 -23.4369 -1.98711
lowerback 0.406719 -0.668484 -3.43411
upperback 1.57739 -0.863754 -1.77213
thorax 1.41358 -0.466143 0.0992392
lowerneck -4.52634 -2.7665 -5.30592
upperneck 10.7578 -4.94206 13.9784
head 4.41725 -1.97816 4.94572
rclavicle -1.95803e-014 -4.77083e-015
rhumerus 31.0967 11.8858 -70.1573
rradius 111.622
rwrist -1.07837
rhand -40.44 -1.09781
rfingers 7.12502
rthumb -13.3919 -30.6474
lclavicle -1.95803e-014 -4.77083e-015
lhumerus -2.28973 -24.0112 84.6335
lradius 19.7554
lwrist -12.0597
lhand -12.2258 31.3349
lfingers 7.12502
lthumb 13.8394 60.8545
rfemur -0.261969 15.5596 20.9941
rtibia 33.9138
rfoot -19.9499 -11.5343
rtoes -10.4649
lfemur -5.05955 -4.07435 -6.8273
ltibia 42.6028
lfoot -10.7018 17.1065
ltoes -20.4649
642
root 1.49068 18.2386 4.58831 -10.0408 -23.3127 -2.16226
lowerback 0.0782086 -0.755232 -3.32924
upperback 1.41277 -0.969793 -1.6325
thorax 1.43225 -0.516991 0.179612
lowerneck -3.83713 -2.74973 -5.8446
upperneck 11.0617 -4.95482 14.195
head 4.40573 -2.01451 5.11745
rclavicle -3.20043e-014 6.36111e-015
rhumerus 30.5268 10.7955 -71.0751
rradius 108.382
rwrist 6.25796
rhand -42.538 1.27688
rfingers 7.12502
rthumb -15.4134 -28.1285
lclavicle -3.20043e-014 6.36111e-015
lhumerus -1.96759 -23.7172 84.804
lradius 20.5021
lwrist -11.5925
lhand -12.4487 31.3046
lfingers 7.12502
lthumb 13.6246 60.8387
rfemur -0.0689306 15.3416 21.3756
rtibia 33.8883
rfoot -19.8215 -11.6994
rtoes -10.7282
lfemur -5.24645 -4.51063 -6.53643
ltibia 43.0119
lfoot -9.56915 16.7963
ltoes -18.5509
643
root 1.45746 18.234 4.54861 -10.0937 -23.0844 -2.43716
lowerback -0.0952833 -0.882164 -3.251
upperback 1.2195 -1.13851 -1.433
thorax 1.33825 -0.598203 0.337424
lowerneck -3.28121 -2.76067 -6.30013
upperneck 11.4572 -5.01399 14.3057
head 4.4457 -2.06879 5.23872
rclavicle 1.88845e-014 3.26007e-014
rhumerus 30.0025 9.63407 -72.0394
rradius 105.167
rwrist 12.5519
rhand -45.051 2.87828
rfingers 7.12502
rthumb -17.8328 -26.3241
lclavicle 1.88845e-014 3.26007e-014
lhumerus -1.66055 -23.4832 84.9776
lradius 21.3584
lwrist -11.2501
lhand -12.051 30.894
lfingers 7.12502
lthumb 14.0079 60.402
rfemur 0.0444275 15.1139 21.8487
rtibia 33.8727
rfoot -19.6936 -11.8829
rtoes -10.8896
lfemur -5.63275 -4.92481 -6.08227
ltibia 43.4918
lfoot -8.64743 16.7923
ltoes -18.5306
644
root 1.42349 18.2344 4.51301 -10.2999 -22.8646 -2.42155
lowerback -0.273691 -0.940489 -3.43447
upperback 1.05872 -1.21168 -1.32838
thorax 1.28186 -0.634762 0.544676
lowerneck -2.94227 -2.8422 -6.49313
upperneck 12.0229 -5.18209 14.2129
head 4.57694 -2.16305 5.24297
rclavicle 7.25564e-014 2.38542e-014
rhumerus 29.4557 8.34168 -73.0035
rradius 101.856
rwrist 17.6689
rhand -48.0674 4.38968
rfingers 7.12502
rthumb -20.7332 -24.5228
lclavicle 7.25564e-014 2.38542e-014
lhumerus -1.37145 -23.8188 85.1473
lradius 22.3262
lwrist -10.7412
lhand -11.9981 30.9036
lfingers 7.12502
lthumb 14.0588 60.4081
rfemur 0.225174 14.9437 22.0268
rtibia 33.8735
rfoot -19.6378 -11.9964
rtoes -10.9851
lfemur -5.97264 -5.32116 -5.96711
ltibia 44.0432
lfoot -8.10447 16.793
ltoes -19.381
645
root 1.39114 18.2372 4.48025 -10.6463 -22.6429 -2.24049
lowerback -0.384454 -0.961706 -3.71007
upperback 0.96683 -1.2342 -1.38325
thorax 1.25548 -0.647136 0.640979
lowerneck -2.62612 -2.89456 -6.51893
upperneck 12.5153 -5.34093 14.3172
head 4.69033 -2.23801 5.28185
rclavicle 4.77083e-014 1.19271e-014
rhumerus 28.9332 6.95717 -74.0881
rradius 98.5129
rwrist 21.187
rhand -51.3803 5.33891
rfingers 7.12502
rthumb -23.9134 -23.1921
lclavicle 4.77083e-014 1.19271e-014
lhumerus -1.01653 -24.4718 85.105
lradius 23.3926
lwrist -9.98067
lhand -12.1316 31.2315
lfingers 7.12502
lthumb 13.9302 60.7449
rfemur 0.481671 14.7674 22.0167
rtibia 33.9146
rfoot -19.6589 -12.0752
rtoes -10.9025
lfemur -6.19426 -5.67057 -6.07395
ltibia 44.6443
lfoot -7.74487 16.635
ltoes -19.6969
646
root 1.36078 18.2353 4.43684 -10.7549 -22.4935 -2.53952
lowerback -0.41336 -0.978877 -3.53339
upperback 0.920228 -1.25869 -1.38773
thorax 1.22064 -0.65661 0.537429
lowerneck -2.59243 -2.944 -6.35724
upperneck 13.0457 -5.5054 14.4178
head 4.86145 -2.29441 5.28397
rclavicle -9.14409e-015 0
rhumerus 28.4836 5.5342 -75.2456
rradius 95.2499
rwrist 23.0847
rhand -54.4082 5.54862
rfingers 7.12502
rthumb -26.814 -22.5704
lclavicle -9.14409e-015 0
lhumerus -0.460321 -24.6988 84.8772
lradius 24.5447
lwrist -9.10632
lhand -11.2691 31.4925
lfingers 7.12502
lthumb 14.7612 60.9469
rfemur 0.604722 14.5659 22.4903
rtibia 33.9887
rfoot -19.6479 -12.1165
rtoes -10.511
lfemur -6.56658 -5.88699 -5.58941
ltibia 45.2688
lfoot -7.20349 16.4042
ltoes -19.7165
647
root 1.33143 18.2289 4.38593 -10.767 -22.3183 -2.83221
lowerback -0.47916 -0.94824 -3.34847
upperback 0.856162 -1.21902 -1.29886
thorax 1.18824 -0.634279 0.525495
lowerneck -2.62034 -3.11496 -6.63257
upperneck 13.5789 -5.81027 14.5606
head 5.07266 -2.43458 5.36627
rclavicle -4.05521e-014 -1.98785e-014
rhumerus 28.0426 4.14074 -76.0482
rradius 91.9029
rwrist 23.4723
rhand -56.7482 5.06021
rfingers 7.12502
rthumb -29.0511 -22.6947
lclavicle -4.05521e-014 -1.98785e-014
lhumerus 0.087151 -25.1471 84.8595
lradius 25.8609
lwrist -8.16231
lhand -10.0843 31.8035
lfingers 7.12502
lthumb 15.9025 61.1706
rfemur 0.576676 14.3336 22.9123
rtibia 34.0805
rfoot -19.6598 -12.065
rtoes -10.0019
lfemur -7.1534 -6.06715 -5.07134
ltibia 45.9139
lfoot -6.23383 16.2169
ltoes -20.2191
648
root 1.30687 18.2243 4.33657 -10.9259 -22.0406 -2.76873
lowerback -0.577369 -0.811178 -3.41975
upperback 0.76182 -1.03391 -1.26628
thorax 1.14216 -0.540964 0.601267
lowerneck -2.35927 -3.37539 -7.13699
upperneck 14.0112 -6.23192 14.7722
head 5.22621 -2.65476 5.50639
rclavicle 3.69739e-014 3.18055e-015
rhumerus 27.4983 2.68767 -76.4534
rradius 88.3435
rwrist 22.5816
rhand -59.2289 3.31656
rfingers 7.12502
rthumb -31.4175 -24.0045
lclavicle 3.69739e-014 3.18055e-015
lhumerus 0.492437 -26.0129 85.1438
lradius 27.2616
lwrist -7.41576
lhand -10.0271 31.6876
lfingers 7.12502
lthumb 15.9575 61.0502
rfemur 0.577225 14.0844 22.915
rtibia 34.2125
rfoot -19.816 -11.8914
rtoes -8.99564
lfemur -7.73351 -6.28195 -4.98574
ltibia 46.5561
lfoot -5.06959 16.0992
ltoes -20.8945
